<svg width="48" height="47" viewBox="0 0 48 47" fill="none" xmlns="http://www.w3.org/2000/svg">
<path d="M19.4774 32.6144L14.765 27.9021L1.24802 41.4191L1 42.0391V42.6592V43.2792L1.12401 43.8993L1.37203 44.3953L1.86806 45.1394L2.3641 45.5114L2.86014 45.8834L3.23216 46.0074L3.60419 46.1314L4.22424 46.2554H4.84428H5.34032L5.71234 46.1314L5.96036 46.0074L19.4774 32.6144Z" fill="#1D005A" stroke="black" stroke-width="0.5"/>
<circle cx="30.6387" cy="16.4932" r="16.4932" fill="#2ABADA"/>
<circle cx="30.6382" cy="16.4932" r="12.5249" fill="white"/>
<rect x="15.8887" y="27.8057" width="2.47758" height="4.92369" transform="rotate(-45.6563 15.8887 27.8057)" fill="#2ABADA"/>
<path d="M30.6382 9.85889C26.5519 9.85889 23.3686 12.2937 19.4619 16.2454C22.8248 19.6232 25.6488 22.6318 30.6382 22.6318C35.6227 22.6318 39.2899 18.8199 41.8145 16.3152C39.23 13.3814 35.5678 9.85889 30.6382 9.85889ZM30.6382 20.8007C28.1735 20.8007 26.1677 18.755 26.1677 16.2454C26.1677 13.7307 28.1735 11.69 30.6382 11.69C33.103 11.69 35.1088 13.7357 35.1088 16.2454C35.1088 18.76 33.103 20.8007 30.6382 20.8007Z" fill="black"/>
<path d="M30.6378 14.6487C30.6378 14.2545 30.7825 13.8953 31.017 13.6159C30.8923 13.5959 30.7675 13.5859 30.6378 13.5859C29.2008 13.5859 28.0283 14.7784 28.0283 16.2453C28.0283 17.7122 29.2008 18.9047 30.6378 18.9047C32.0747 18.9047 33.2473 17.7122 33.2473 16.2453C33.2473 16.1305 33.2373 16.0158 33.2273 15.901C32.9529 16.1156 32.6136 16.2453 32.2394 16.2453C31.3513 16.2453 30.6378 15.5318 30.6378 14.6487Z" fill="black"/>
</svg>
