<svg width="16" height="16" viewBox="0 0 16 16" fill="none" xmlns="http://www.w3.org/2000/svg">
<circle cx="8" cy="8" r="7.5" fill="white" stroke="black"/>
<path d="M4 7V4.5C4 4.22386 4.22386 4 4.5 4H7" stroke="black" stroke-width="0.75"/>
<path d="M12 9V11.5C12 11.7761 11.7761 12 11.5 12H9" stroke="black" stroke-width="0.75"/>
<path d="M8.75 7C8.75 7.13807 8.86193 7.25 9 7.25L11.25 7.25C11.3881 7.25 11.5 7.13807 11.5 7C11.5 6.86193 11.3881 6.75 11.25 6.75H9.25V4.75C9.25 4.61193 9.13807 4.5 9 4.5C8.86193 4.5 8.75 4.61193 8.75 4.75V7ZM11.8232 3.82322L8.82322 6.82322L9.17678 7.17678L12.1768 4.17678L11.8232 3.82322Z" fill="black"/>
<path d="M7.25 9C7.25 8.86193 7.13807 8.75 7 8.75H4.75C4.61193 8.75 4.5 8.86193 4.5 9C4.5 9.13807 4.61193 9.25 4.75 9.25H6.75V11.25C6.75 11.3881 6.86193 11.5 7 11.5C7.13807 11.5 7.25 11.3881 7.25 11.25L7.25 9ZM4.17678 12.1768L7.17678 9.17678L6.82322 8.82322L3.82322 11.8232L4.17678 12.1768Z" fill="black"/>
</svg>
