<svg width="46" height="47" viewBox="0 0 46 47" fill="none" xmlns="http://www.w3.org/2000/svg">
<path d="M21.7258 0.222042C21.5366 0.333288 21.3142 0.533721 21.2588 0.655763C21.1808 0.78907 21.1363 2.00198 21.1363 3.99315V7.1193L20.8917 7.1639C20.7471 7.19722 20.2242 7.2972 19.7126 7.39765C16.8756 7.94262 13.9386 9.54465 11.7362 11.7362C9.5446 13.9391 7.94256 16.8761 7.39759 19.7126C7.29761 20.2243 7.19716 20.7472 7.16383 20.881L7.11924 21.1368H3.97055C0.53272 21.1368 0.510659 21.1368 0.165655 21.8043C-0.0455716 22.2047 -0.0568371 23.8513 0.143594 24.2409C0.210248 24.3855 0.421474 24.6192 0.588578 24.7417C0.88899 24.9642 1.07815 24.9755 4.03721 25.0309L7.16337 25.0867L7.30794 25.9434C8.11999 30.7828 11.5132 35.2327 16.0631 37.4355C17.5651 38.1588 18.7663 38.5259 20.7246 38.8704L21.1363 38.9484V42.1078V45.2786L21.4587 45.6344L21.7812 46.0015H23.0162H24.2511L24.6069 45.6344L24.974 45.2786L25.0073 42.1078C25.0407 38.9484 25.0407 38.9371 25.2852 38.8925C25.419 38.8592 25.8527 38.7813 26.2531 38.7033C30.9475 37.8246 35.4199 34.3202 37.4894 29.9036C38.0011 28.7912 38.5127 27.2783 38.7019 26.2546C38.7798 25.8542 38.8572 25.42 38.891 25.2867C38.9356 25.0421 38.9469 25.0421 42.1064 25.0083L45.2771 24.975L45.6329 24.6079L46 24.2521V23.0172V21.7822L45.6329 21.4597L45.2771 21.1373H42.1064C40.3598 21.1373 38.9356 21.1152 38.9356 21.0927C38.9356 21.0706 38.8577 20.6364 38.7685 20.1248C37.9565 15.6857 35.2195 11.7367 31.315 9.34469C29.7797 8.39887 27.6439 7.58682 25.9414 7.30894L25.0848 7.16436L25.0289 4.03821C24.9735 1.07915 24.9623 0.889992 24.7398 0.58958C24.384 0.111269 24.061 1.99024e-05 23.0265 1.99024e-05C22.282 -0.000449491 22.0037 0.0441419 21.7258 0.222042ZM25.642 9.73382C30.6034 10.7571 34.4637 14.2283 35.9883 19.0564C38.1794 25.987 34.2971 33.5522 27.344 35.8776C19.9125 38.3583 11.9915 34.1085 9.94452 26.5325C8.68749 21.8822 10.0337 16.8982 13.4598 13.4608C15.5622 11.3692 18.3659 9.97884 21.3029 9.57845C22.36 9.43341 24.5516 9.51133 25.642 9.73382Z" fill="#1D005A"/>
<path d="M22.8719 10.7796C22.7606 10.9467 22.8939 10.98 24.1956 11.1133C28.5121 11.5583 32.072 13.9944 33.9857 17.7993C34.8869 19.5905 35.2652 21.2146 35.2652 23.3283C35.2652 26.8215 34.0303 29.7252 31.5162 32.1614C29.6138 33.9972 27.3334 35.0983 24.641 35.4879C20.124 36.1221 15.3963 33.9751 12.8372 30.1256C12.4701 29.5806 12.281 29.3915 12.203 29.4694C12.0251 29.6473 12.303 30.1702 13.093 31.1601C16.6196 35.5992 22.5494 37.1454 27.8671 35.0096C33.0736 32.918 36.3664 27.2111 35.5877 21.6263C35.2094 18.8785 33.9298 16.3531 31.9274 14.3507C29.7912 12.2258 26.8988 10.8908 24.0177 10.7129C23.2723 10.6683 22.9277 10.6904 22.8719 10.7796Z" fill="#1D005A"/>
<path d="M22.0154 12.2372C18.0885 12.593 14.4502 15.2522 12.8928 18.9345C12.3699 20.147 12.1141 21.2928 12.0474 22.6948C11.8029 27.9009 15.2407 32.5399 20.3467 33.8974C21.2592 34.1419 21.6484 34.1865 23.0279 34.1865C24.3962 34.1865 24.7966 34.1419 25.6978 33.9082C26.2761 33.7523 27.0886 33.4745 27.4998 33.2853C31.216 31.6053 33.7855 27.9121 34.008 23.9627C34.0638 22.8948 34.0638 22.8282 33.8521 22.761C33.3959 22.6165 33.2959 22.7723 33.218 23.7843C33.0621 25.6868 32.428 27.6113 31.4826 28.9795C30.0139 31.1045 27.5998 32.6953 25.0304 33.2182C23.9066 33.4407 21.4592 33.3853 20.458 33.1069C16.6756 32.0503 13.8832 29.1246 13.0599 25.331C12.7815 24.0514 12.8261 21.9936 13.1711 20.6586C14.2615 16.3979 17.8881 13.3718 22.2825 13.0493C23.2058 12.9826 23.4729 12.8822 23.4729 12.6156C23.4729 12.4597 23.1725 12.1147 23.0505 12.1373C23.0059 12.1481 22.5383 12.1926 22.0154 12.2372Z" fill="#1D005A"/>
<path d="M21.0702 15.5747C16.3308 16.8096 13.95 22.1495 16.1749 26.566C18.5111 31.2162 24.7855 32.1954 28.4904 28.4905C32.7178 24.2519 30.7487 17.0542 24.9413 15.5634C23.8401 15.2855 22.1602 15.2855 21.0702 15.5747Z" fill="#1D005A"/>
</svg>
