<svg width="19" height="19" viewBox="0 0 19 19" fill="none" xmlns="http://www.w3.org/2000/svg">
<mask id="path-1-inside-1_859_17" fill="white">
<path fill-rule="evenodd" clip-rule="evenodd" d="M-0.000362158 8.6094L9.49982 19.0002L19 8.6094L13.5615 8.6094L13.5615 0.000102739L5.02937 0.000102739L5.02937 8.6094L-0.000362158 8.6094Z"/>
</mask>
<path fill-rule="evenodd" clip-rule="evenodd" d="M-0.000362158 8.6094L9.49982 19.0002L19 8.6094L13.5615 8.6094L13.5615 0.000102739L5.02937 0.000102739L5.02937 8.6094L-0.000362158 8.6094Z" fill="white"/>
<path d="M9.49982 19.0002L8.9463 19.5063L9.49982 20.1117L10.0533 19.5063L9.49982 19.0002ZM-0.000362158 8.6094V7.8594H-1.70229L-0.553884 9.11548L-0.000362158 8.6094ZM19 8.6094L19.5535 9.11548L20.7019 7.8594H19V8.6094ZM13.5615 8.6094H12.8115V9.3594H13.5615V8.6094ZM13.5615 0.000102739H14.3115V-0.749897H13.5615V0.000102739ZM5.02937 0.000102739V-0.749897H4.27937V0.000102739H5.02937ZM5.02937 8.6094V9.3594H5.77937V8.6094H5.02937ZM10.0533 18.4942L0.55316 8.10332L-0.553884 9.11548L8.9463 19.5063L10.0533 18.4942ZM18.4465 8.10332L8.9463 18.4942L10.0533 19.5063L19.5535 9.11548L18.4465 8.10332ZM13.5615 9.3594L19 9.3594V7.8594L13.5615 7.8594V9.3594ZM12.8115 0.000102739L12.8115 8.6094H14.3115L14.3115 0.000102739H12.8115ZM5.02937 0.750103L13.5615 0.750103V-0.749897L5.02937 -0.749897V0.750103ZM5.77937 8.6094L5.77937 0.000102739H4.27937L4.27937 8.6094H5.77937ZM-0.000362158 9.3594L5.02937 9.3594V7.8594L-0.000362158 7.8594V9.3594Z" fill="black" mask="url(#path-1-inside-1_859_17)"/>
</svg>
