<svg width="45" height="50" viewBox="0 0 45 50" fill="none" xmlns="http://www.w3.org/2000/svg">
<path d="M42.5348 24.9999L22.2298 37.4574L1.9248 25.7849L10.3573 18.3774L22.2298 24.9999L34.5573 18.3774L42.5348 24.9999Z" fill="#D8D8D8"/>
<mask id="mask0_838_19" style="mask-type:luminance" maskUnits="userSpaceOnUse" x="1" y="18" width="42" height="20">
<path d="M42.5348 24.9999L22.2298 37.4574L1.9248 25.7849L10.3573 18.3774L22.2298 24.9999L34.5573 18.3774L42.5348 24.9999Z" fill="#FFA0A0"/>
</mask>
<g mask="url(#mask0_838_19)">
<path d="M52.499 -4.99976H-7.50098V55.0002H52.499V-4.99976Z" fill="#FFA0A0"/>
</g>
<path d="M3.67218 20L2.51931 19.3412C-0.839768 17.4217 -0.839768 12.5783 2.51931 10.6588L20.0193 0.658784C21.5565 -0.219595 23.4435 -0.219595 24.9807 0.658784L42.4807 10.6588C45.8398 12.5783 45.8398 17.4217 42.4807 19.3412L41.3278 20L42.4807 20.6588C45.8398 22.5783 45.8398 27.4217 42.4807 29.3412L41.3278 30L42.4807 30.6588C45.8398 32.5783 45.8398 37.4217 42.4807 39.3412L24.9807 49.3412C23.4435 50.2196 21.5565 50.2196 20.0193 49.3412L2.51931 39.3412C-0.839768 37.4217 -0.839768 32.5783 2.51931 30.6588L3.67218 30L2.51931 29.3412C-0.839768 27.4217 -0.839768 22.5783 2.51931 20.6588L3.67218 20ZM36.2889 22.8794L24.9807 29.3412C23.4435 30.2196 21.5565 30.2196 20.0193 29.3412L8.71109 22.8794L5 25L22.5 35L40 25L36.2889 22.8794ZM8.71109 32.8794L5 35L22.5 45L40 35L36.2889 32.8794L24.9807 39.3412C23.4435 40.2196 21.5565 40.2196 20.0193 39.3412L8.71109 32.8794ZM22.5 5L5 15L22.5 25L40 15L22.5 5Z" fill="black"/>
<mask id="mask1_838_19" style="mask-type:luminance" maskUnits="userSpaceOnUse" x="0" y="0" width="45" height="50">
<path d="M3.67218 20L2.51931 19.3412C-0.839768 17.4217 -0.839768 12.5783 2.51931 10.6588L20.0193 0.658784C21.5565 -0.219595 23.4435 -0.219595 24.9807 0.658784L42.4807 10.6588C45.8398 12.5783 45.8398 17.4217 42.4807 19.3412L41.3278 20L42.4807 20.6588C45.8398 22.5783 45.8398 27.4217 42.4807 29.3412L41.3278 30L42.4807 30.6588C45.8398 32.5783 45.8398 37.4217 42.4807 39.3412L24.9807 49.3412C23.4435 50.2196 21.5565 50.2196 20.0193 49.3412L2.51931 39.3412C-0.839768 37.4217 -0.839768 32.5783 2.51931 30.6588L3.67218 30L2.51931 29.3412C-0.839768 27.4217 -0.839768 22.5783 2.51931 20.6588L3.67218 20ZM36.2889 22.8794L24.9807 29.3412C23.4435 30.2196 21.5565 30.2196 20.0193 29.3412L8.71109 22.8794L5 25L22.5 35L40 25L36.2889 22.8794ZM8.71109 32.8794L5 35L22.5 45L40 35L36.2889 32.8794L24.9807 39.3412C23.4435 40.2196 21.5565 40.2196 20.0193 39.3412L8.71109 32.8794ZM22.5 5L5 15L22.5 25L40 15L22.5 5Z" fill="#7600FF"/>
</mask>
<g mask="url(#mask1_838_19)">
<path d="M53 -12H-7V48H53V-12Z" fill="#7600FF"/>
</g>
</svg>
